<svg id="Capa_1" enable-background="new 0 0 485.034 485.034" height="512" viewBox="0 0 485.034 485.034" width="512" xmlns="http://www.w3.org/2000/svg"><g><path d="m378.16 462.754h64.088v22.281h-64.088z" fill="#3a556a"/><path d="m42.848 462.754h64.088v22.281h-64.088z" fill="#3a556a"/><path d="m364.204 110.853h28.279v337.149h-28.279z" fill="#2f4859"/><path d="m378.344 0c-47.632-.034-86.273 38.552-86.307 86.185-.034 47.632 38.552 86.273 86.185 86.307 47.632.034 86.273-38.552 86.307-86.185 0-.041 0-.082 0-.122 0-47.599-38.586-86.185-86.185-86.185z" fill="#3a556a"/><path d="m378.344 14.752c-39.485 0-71.494 32.009-71.494 71.494s32.009 71.494 71.494 71.494 71.494-32.009 71.494-71.494c0-.02 0-.041 0-.061 0-39.451-31.982-71.433-71.433-71.433-.02 0-.041 0-.061 0z" fill="#ebf0f3"/><g fill="#3a556a"><path d="m377.059 20.444h2.571v11.324h-2.571z"/><path d="m377.059 140.662h2.571v11.324h-2.571z"/><path d="m432.822 84.899h11.324v2.571h-11.324z"/><path d="m312.542 84.899h11.324v2.571h-11.324z"/><path d="m415.216 42.432h11.324v2.571h-11.324z" transform="matrix(.708 -.707 .707 .708 92.127 310.123)"/><path d="m330.211 127.475h11.324v2.571h-11.324z" transform="matrix(.708 -.707 .707 .708 7.2 274.925)"/><path d="m419.511 123.085h2.571v11.324h-2.571z" transform="matrix(.707 -.707 .707 .707 32.211 335.257)"/><path d="m334.572 38.02h2.571v11.324h-2.571z" transform="matrix(.707 -.707 .707 .707 67.483 250.281)"/><path d="m354.077 25.048h2.571v11.324h-2.571z" transform="matrix(.924 -.382 .382 .924 15.223 138.091)"/><path d="m400.056 136.094h2.571v11.324h-2.571z" transform="matrix(.924 -.382 .382 .924 -23.725 163.858)"/><path d="m428.256 61.972h11.324v2.571h-11.324z" transform="matrix(.924 -.383 .383 .924 8.86 171.017)"/><path d="m317.099 107.934h11.324v2.571h-11.324z" transform="matrix(.924 -.383 .383 .924 -17.22 131.948)"/><path d="m395.704 29.397h11.324v2.571h-11.324z" transform="matrix(.382 -.924 .924 .382 219.674 389.882)"/><path d="m349.678 140.417h11.324v2.571h-11.324z" transform="matrix(.382 -.924 .924 .382 88.776 416.092)"/><path d="m432.605 103.527h2.571v11.324h-2.571z" transform="matrix(.383 -.924 .924 .383 166.845 468.174)"/><path d="m321.528 57.558h2.571v11.324h-2.571z" transform="matrix(.383 -.924 .924 .383 140.87 337.268)"/></g><path d="m377.793 37.889-6.121 62.496c-.102.907.551 1.725 1.458 1.827.044.005.089.008.134.01h10.039c.912-.028 1.629-.79 1.601-1.703-.001-.045-.005-.089-.01-.134l-6.121-62.496c-.139-.27-.472-.377-.742-.237-.102.053-.185.136-.238.237z" fill="#64798a"/><path d="m372.713 81.533c-3.076 3.093-3.063 8.095.031 11.171 3.093 3.076 8.095 3.063 11.171-.031s3.063-8.095-.031-11.171-8.095-3.062-11.171.031z" fill="#3a556a"/><path d="m374.977 83.736c-1.87 1.859-1.878 4.882-.019 6.752s4.882 1.878 6.752.019 1.878-4.882.019-6.752c-.006-.006-.013-.013-.019-.019-1.822-1.859-4.806-1.89-6.665-.068-.023.023-.045.045-.068.068z" fill="#e1e6e9"/><path d="m16.527 428.904h451.98v41.807h-451.98z" fill="#2f4859"/><path d="m55.09 213.197h242.762v215.707h-242.762z" fill="#fcd462"/><path d="m143.417 213.197h66.108v75.044h-66.108z" fill="#ebf0f3"/><path d="m118.627 360.532-21.853-26.688-21.913 26.688h13.405v54.661h17.017v-54.661z" fill="#3a556a"/><path d="m173.471 360.532-21.913-26.688-21.914 26.688h13.406v54.661h17.016v-54.661z" fill="#3a556a"/></g></svg>